M48
; DRILL file {KiCad (5.1.5)-3} date 03/03/2021 13:10:31
; FORMAT={-:-/ absolute / inch / decimal}
; #@! TF.CreationDate,2021-03-03T13:10:31+01:00
; #@! TF.GenerationSoftware,Kicad,Pcbnew,(5.1.5)-3
; #@! TF.FileFunction,Plated,1,2,PTH
FMAT,2
INCH
T1C0.0138
T2C0.0157
T3C0.0866
%
G90
G05
T1
X1.7749Y-4.4751
X2.01Y-4.215
X2.095Y-3.7675
X2.095Y-4.25
X2.145Y-3.745
X2.145Y-4.055
X2.145Y-4.25
X2.1925Y-3.7275
X2.195Y-4.25
X2.215Y-4.6
X2.245Y-4.25
X2.27Y-4.325
X2.295Y-4.25
X2.315Y-4.055
X2.345Y-4.25
X2.395Y-4.25
X2.44Y-4.27
X2.48Y-4.06
X2.5Y-4.27
X2.55Y-4.27
X2.6Y-4.27
X2.65Y-4.275
X2.71Y-4.245
X2.745Y-4.26
X2.7875Y-3.82
X2.9Y-3.82
X2.975Y-3.825
X2.975Y-3.925
X2.975Y-4.02
X2.975Y-4.12
X2.975Y-4.22
X2.975Y-4.32
X2.975Y-4.42
X2.975Y-4.52
X3.075Y-3.82
X3.075Y-3.925
X3.075Y-4.02
X3.075Y-4.22
X3.075Y-4.32
X3.075Y-4.42
X3.0756Y-4.1206
X3.08Y-4.52
X3.175Y-3.825
X3.175Y-3.925
X3.175Y-4.02
X3.175Y-4.12
X3.175Y-4.22
X3.175Y-4.32
X3.175Y-4.42
X3.175Y-4.52
X3.275Y-3.82
X3.275Y-3.925
X3.275Y-4.02
X3.275Y-4.12
X3.275Y-4.22
X3.275Y-4.32
X3.275Y-4.42
X3.275Y-4.52
X3.375Y-3.825
X3.375Y-3.925
X3.375Y-4.02
X3.375Y-4.12
X3.375Y-4.22
X3.375Y-4.32
X3.375Y-4.42
X3.375Y-4.52
X3.475Y-3.825
X3.475Y-3.925
X3.475Y-4.02
X3.475Y-4.12
X3.475Y-4.22
X3.475Y-4.32
X3.475Y-4.42
X3.48Y-4.52
X3.575Y-3.825
X3.575Y-3.925
X3.575Y-4.02
X3.575Y-4.12
X3.575Y-4.22
X3.575Y-4.32
X3.575Y-4.42
X3.575Y-4.52
X3.675Y-3.825
X3.675Y-3.925
X3.675Y-4.02
X3.675Y-4.12
X3.675Y-4.22
X3.675Y-4.32
X3.675Y-4.42
X3.675Y-4.52
X3.775Y-3.825
X3.775Y-3.925
X3.775Y-4.02
X3.775Y-4.12
X3.775Y-4.22
X3.775Y-4.32
X3.775Y-4.415
X3.775Y-4.52
X3.875Y-3.825
X3.875Y-3.925
X3.875Y-4.02
X3.875Y-4.12
X3.875Y-4.215
X3.875Y-4.32
X3.875Y-4.42
X3.875Y-4.52
X3.975Y-3.825
X3.975Y-3.925
X3.975Y-4.02
X3.975Y-4.12
X3.975Y-4.22
X3.975Y-4.32
X3.975Y-4.42
X3.975Y-4.52
X4.075Y-3.825
X4.075Y-3.925
X4.075Y-4.02
X4.075Y-4.12
X4.075Y-4.22
X4.075Y-4.32
X4.075Y-4.42
X4.075Y-4.52
X4.175Y-3.825
X4.175Y-3.925
X4.175Y-4.02
X4.175Y-4.12
X4.175Y-4.22
X4.175Y-4.32
X4.175Y-4.42
X4.175Y-4.52
X4.275Y-3.825
X4.275Y-3.925
X4.275Y-4.02
X4.275Y-4.12
X4.275Y-4.22
X4.275Y-4.32
X4.275Y-4.42
X4.275Y-4.52
X4.375Y-3.825
X4.375Y-3.925
X4.375Y-4.02
X4.375Y-4.12
X4.375Y-4.22
X4.375Y-4.32
X4.375Y-4.42
X4.375Y-4.52
X4.48Y-3.825
T2
X1.485Y-3.8
X1.5041Y-3.7541
X1.5041Y-3.8459
X1.55Y-3.735
X1.55Y-3.865
X1.5959Y-3.7541
X1.5959Y-3.8459
X1.615Y-3.8
X1.485Y-4.575
X1.5041Y-4.5291
X1.5041Y-4.6209
X1.55Y-4.51
X1.55Y-4.64
X1.5959Y-4.5291
X1.5959Y-4.6209
X1.615Y-4.575
T3
X1.55Y-3.8
X1.55Y-4.575
T0
M30
