G04 #@! TF.GenerationSoftware,KiCad,Pcbnew,(5.1.5)-3*
G04 #@! TF.CreationDate,2021-03-03T13:10:29+01:00*
G04 #@! TF.ProjectId,LedArray,4c656441-7272-4617-992e-6b696361645f,rev?*
G04 #@! TF.SameCoordinates,Original*
G04 #@! TF.FileFunction,Soldermask,Bot*
G04 #@! TF.FilePolarity,Negative*
%FSLAX46Y46*%
G04 Gerber Fmt 4.6, Leading zero omitted, Abs format (unit mm)*
G04 Created by KiCad (PCBNEW (5.1.5)-3) date 2021-03-03 13:10:29*
%MOMM*%
%LPD*%
G04 APERTURE LIST*
%ADD10C,0.100000*%
G04 APERTURE END LIST*
D10*
G36*
X39645880Y-113964776D02*
G01*
X40026593Y-114040504D01*
X40436249Y-114210189D01*
X40804929Y-114456534D01*
X41118466Y-114770071D01*
X41364811Y-115138751D01*
X41534496Y-115548407D01*
X41621000Y-115983296D01*
X41621000Y-116426704D01*
X41534496Y-116861593D01*
X41364811Y-117271249D01*
X41118466Y-117639929D01*
X40804929Y-117953466D01*
X40436249Y-118199811D01*
X40026593Y-118369496D01*
X39645880Y-118445224D01*
X39591705Y-118456000D01*
X39148295Y-118456000D01*
X39094120Y-118445224D01*
X38713407Y-118369496D01*
X38303751Y-118199811D01*
X37935071Y-117953466D01*
X37621534Y-117639929D01*
X37375189Y-117271249D01*
X37205504Y-116861593D01*
X37119000Y-116426704D01*
X37119000Y-115983296D01*
X37205504Y-115548407D01*
X37375189Y-115138751D01*
X37621534Y-114770071D01*
X37935071Y-114456534D01*
X38303751Y-114210189D01*
X38713407Y-114040504D01*
X39094120Y-113964776D01*
X39148295Y-113954000D01*
X39591705Y-113954000D01*
X39645880Y-113964776D01*
G37*
G36*
X39645880Y-94279776D02*
G01*
X40026593Y-94355504D01*
X40436249Y-94525189D01*
X40804929Y-94771534D01*
X41118466Y-95085071D01*
X41364811Y-95453751D01*
X41534496Y-95863407D01*
X41621000Y-96298296D01*
X41621000Y-96741704D01*
X41534496Y-97176593D01*
X41364811Y-97586249D01*
X41118466Y-97954929D01*
X40804929Y-98268466D01*
X40436249Y-98514811D01*
X40026593Y-98684496D01*
X39645880Y-98760224D01*
X39591705Y-98771000D01*
X39148295Y-98771000D01*
X39094120Y-98760224D01*
X38713407Y-98684496D01*
X38303751Y-98514811D01*
X37935071Y-98268466D01*
X37621534Y-97954929D01*
X37375189Y-97586249D01*
X37205504Y-97176593D01*
X37119000Y-96741704D01*
X37119000Y-96298296D01*
X37205504Y-95863407D01*
X37375189Y-95453751D01*
X37621534Y-95085071D01*
X37935071Y-94771534D01*
X38303751Y-94525189D01*
X38713407Y-94355504D01*
X39094120Y-94279776D01*
X39148295Y-94269000D01*
X39591705Y-94269000D01*
X39645880Y-94279776D01*
G37*
M02*
